name rise30.2954peak35.7071fall66.7804.mot
datacolumns 19
datarows 32
range 12.81663500000000 12.86828700000000
endheader
time	ground_force1_vx	ground_force1_vy	ground_force1_vz	ground_force1_px	ground_force1_py	ground_force1_pz	ground_force2_vx	ground_force2_vy	ground_force2_vz	ground_force2_px	ground_force2_py	ground_force2_pz	ground_torque1_x	ground_torque1_y	ground_torque1_z	ground_torque2_x	ground_torque2_y	ground_torque2_z	
12.81663500000000	-5.25271800000000	43.26072600000000	-11.59678200000000	0.32509900000000	0.00000000000000	0.14684400000000	-43.64962500000000	802.07731400000000	-50.75906100000000	0.12994600000000	0.00000000000000	-0.04728600000000	0.00000000000000	-7.51207600000000	0.00000000000000	0.00000000000000	-16.11644300000000	0.00000000000000	
12.81829000000000	-5.61462500000000	50.64591100000000	-12.97910800000000	0.33015900000000	0.00000000000000	0.14781200000000	-44.52279800000000	799.19586700000002	-50.46469500000000	0.12917700000000	0.00000000000000	-0.04717600000000	0.00000000000000	-8.54060700000000	0.00000000000000	0.00000000000000	-16.02783400000000	0.00000000000000	
12.81995400000000	-5.83662500000000	58.10844800000000	-14.21395600000000	0.33472400000000	0.00000000000000	0.14869100000000	-45.42510100000000	796.17713100000003	-50.15263600000000	0.12840900000000	0.00000000000000	-0.04706400000000	0.00000000000000	-9.50016000000000	0.00000000000000	0.00000000000000	-15.94094900000000	0.00000000000000	
12.82162500000000	-5.90366500000000	65.55092100000000	-15.27092800000000	0.33886500000000	0.00000000000000	0.14949300000000	-46.35540400000000	793.01795000000004	-49.82245200000000	0.12764100000000	0.00000000000000	-0.04695000000000	0.00000000000000	-10.36892600000000	0.00000000000000	0.00000000000000	-15.85569100000000	0.00000000000000	
12.82328800000000	-5.80763600000000	72.90005300000000	-16.13048600000000	0.34263600000000	0.00000000000000	0.15023000000000	-47.31242400000000	789.71516199999996	-49.47372100000000	0.12687400000000	0.00000000000000	-0.04683300000000	0.00000000000000	-11.13177800000000	0.00000000000000	0.00000000000000	-15.77194600000000	0.00000000000000	
12.82495700000000	-5.54715500000000	80.10891200000000	-16.78400500000000	0.34608600000000	0.00000000000000	0.15091200000000	-48.29472600000000	786.26560500000005	-49.10603700000000	0.12610800000000	0.00000000000000	-0.04671400000000	0.00000000000000	-11.78052900000000	0.00000000000000	0.00000000000000	-15.68958600000000	0.00000000000000	
12.82663200000000	-5.12682500000000	87.15658999999999	-17.23292600000000	0.34925100000000	0.00000000000000	0.15154500000000	-49.30072500000000	782.66613500000005	-48.71900700000000	0.12534200000000	0.00000000000000	-0.04659200000000	0.00000000000000	-12.31357800000000	0.00000000000000	0.00000000000000	-15.60846900000000	0.00000000000000	
12.82829200000000	-4.55614800000000	94.04579500000000	-17.48723500000000	0.35216300000000	0.00000000000000	0.15213600000000	-50.32868400000000	778.91363400000000	-48.31226200000000	0.12457600000000	0.00000000000000	-0.04646800000000	0.00000000000000	-12.73506800000000	0.00000000000000	0.00000000000000	-15.52843800000000	0.00000000000000	
12.82995600000000	-3.84821600000000	100.79891100000000	-17.56349400000000	0.35485100000000	0.00000000000000	0.15269000000000	-51.37671900000000	775.00502300000005	-47.88545500000000	0.12381000000000	0.00000000000000	-0.04634200000000	0.00000000000000	-13.05371400000000	0.00000000000000	0.00000000000000	-15.44932100000000	0.00000000000000	
12.83163200000000	-3.01834100000000	107.45312500000000	-17.48268000000000	0.35733500000000	0.00000000000000	0.15321000000000	-52.44280200000000	770.93727699999999	-47.43826500000000	0.12304500000000	0.00000000000000	-0.04621400000000	0.00000000000000	-13.28146100000000	0.00000000000000	0.00000000000000	-15.37093700000000	0.00000000000000	
12.83329000000000	-2.08273900000000	114.05519000000000	-17.26803300000000	0.35963700000000	0.00000000000000	0.15370200000000	-53.52476500000000	766.70743800000002	-46.97040100000000	0.12227900000000	0.00000000000000	-0.04608300000000	0.00000000000000	-13.43209800000000	0.00000000000000	0.00000000000000	-15.29309100000000	0.00000000000000	
12.83495400000000	-1.05737200000000	120.65630100000000	-16.94310000000000	0.36177200000000	0.00000000000000	0.15416600000000	-54.62030200000000	762.31263000000001	-46.48160600000000	0.12151300000000	0.00000000000000	-0.04595100000000	0.00000000000000	-13.51996600000000	0.00000000000000	0.00000000000000	-15.21557500000000	0.00000000000000	
12.83662200000000	0.04299000000000	127.30749000000000	-16.53007200000000	0.36375700000000	0.00000000000000	0.15460700000000	-55.72697700000000	757.75007200000005	-45.97166000000000	0.12074600000000	0.00000000000000	-0.04581600000000	0.00000000000000	-13.55883900000000	0.00000000000000	0.00000000000000	-15.13817400000000	0.00000000000000	
12.83829100000000	1.20545200000000	134.05580300000000	-16.04853100000000	0.36560200000000	0.00000000000000	0.15502600000000	-56.84222700000000	753.01709500000004	-45.44038200000000	0.11998000000000	0.00000000000000	-0.04567900000000	0.00000000000000	-13.56104700000000	0.00000000000000	0.00000000000000	-15.06066300000000	0.00000000000000	
12.83995400000000	2.41941700000000	140.94140800000000	-15.51459600000000	0.36732000000000	0.00000000000000	0.15542600000000	-57.96337100000000	748.11115600000005	-44.88763300000000	0.11921300000000	0.00000000000000	-0.04554000000000	0.00000000000000	-13.53685300000000	0.00000000000000	0.00000000000000	-14.98280600000000	0.00000000000000	
12.84163500000000	3.67675200000000	147.99571800000001	-14.94048700000000	0.36892100000000	0.00000000000000	0.15580700000000	-59.08761300000000	743.02985699999999	-44.31332000000000	0.11844600000000	0.00000000000000	-0.04539900000000	0.00000000000000	-13.49410400000000	0.00000000000000	0.00000000000000	-14.90436400000000	0.00000000000000	
12.84328700000000	4.97174200000000	155.24045699999999	-14.33445700000000	0.37041200000000	0.00000000000000	0.15617100000000	-60.21205400000000	737.77095999999995	-43.71740000000000	0.11767800000000	0.00000000000000	-0.04525600000000	0.00000000000000	-13.43812300000000	0.00000000000000	0.00000000000000	-14.82508800000000	0.00000000000000	
12.84495800000000	6.30086500000000	162.68758800000001	-13.70103200000000	0.37180200000000	0.00000000000000	0.15652000000000	-61.33369800000000	732.33240400000000	-43.09987900000000	0.11691000000000	0.00000000000000	-0.04511100000000	0.00000000000000	-13.37181300000000	0.00000000000000	0.00000000000000	-14.74472600000000	0.00000000000000	
12.84663000000000	7.66244600000000	170.33995300000001	-13.04148200000000	0.37309700000000	0.00000000000000	0.15685400000000	-62.44946000000000	726.71232299999997	-42.46081700000000	0.11614200000000	0.00000000000000	-0.04496400000000	0.00000000000000	-13.29592600000000	0.00000000000000	0.00000000000000	-14.66302000000000	0.00000000000000	
12.84829200000000	9.05623100000000	178.19242499999999	-12.35445200000000	0.37430400000000	0.00000000000000	0.15717400000000	-63.55617600000000	720.90906700000005	-41.80033000000000	0.11537300000000	0.00000000000000	-0.04481500000000	0.00000000000000	-13.20943800000000	0.00000000000000	0.00000000000000	-14.57971200000000	0.00000000000000	
12.84995800000000	10.48292900000000	186.23342000000000	-11.63667000000000	0.37542700000000	0.00000000000000	0.15748200000000	-64.65061200000000	714.92121199999997	-41.11859100000000	0.11460400000000	0.00000000000000	-0.04466400000000	0.00000000000000	-13.10999700000000	0.00000000000000	0.00000000000000	-14.49453900000000	0.00000000000000	
12.85162400000000	11.94376800000000	194.44656499999999	-10.88366800000000	0.37647200000000	0.00000000000000	0.15777800000000	-65.72947499999999	708.74758699999995	-40.41583000000000	0.11383500000000	0.00000000000000	-0.04451100000000	0.00000000000000	-12.99438500000000	0.00000000000000	0.00000000000000	-14.40723900000000	0.00000000000000	
12.85329300000000	13.44008400000000	202.81238700000000	-10.09046300000000	0.37744200000000	0.00000000000000	0.15806200000000	-66.78942200000000	702.38728100000003	-39.69234000000000	0.11306700000000	0.00000000000000	-0.04435600000000	0.00000000000000	-12.85895900000000	0.00000000000000	0.00000000000000	-14.31754900000000	0.00000000000000	
12.85495900000000	14.97298500000000	211.30988500000001	-9.25214500000000	0.37834100000000	0.00000000000000	0.15833500000000	-67.82707100000000	695.83966699999996	-38.94847300000000	0.11229800000000	0.00000000000000	-0.04419900000000	0.00000000000000	-12.70004700000000	0.00000000000000	0.00000000000000	-14.22520800000000	0.00000000000000	
12.85662600000000	16.54307900000000	219.91790000000000	-8.36436300000000	0.37917400000000	0.00000000000000	0.15859700000000	-68.83901299999999	689.10441000000003	-38.18464400000000	0.11153000000000	0.00000000000000	-0.04404000000000	0.00000000000000	-12.51427200000000	0.00000000000000	0.00000000000000	-14.12995800000000	0.00000000000000	
12.85829200000000	18.15029500000000	228.61621400000001	-7.42367500000000	0.37994200000000	0.00000000000000	0.15885000000000	-69.82182500000000	682.18148399999995	-37.40133200000000	0.11076200000000	0.00000000000000	-0.04387900000000	0.00000000000000	-12.29879300000000	0.00000000000000	0.00000000000000	-14.03154500000000	0.00000000000000	
12.85995300000000	19.79378000000000	237.38636000000000	-6.42777500000000	0.38064900000000	0.00000000000000	0.15909200000000	-70.77207799999999	675.07118100000002	-36.59907800000000	0.10999500000000	0.00000000000000	-0.04371600000000	0.00000000000000	-12.05147500000000	0.00000000000000	0.00000000000000	-13.92971800000000	0.00000000000000	
12.86162500000000	21.47186800000000	246.21213499999999	-5.37559600000000	0.38129600000000	0.00000000000000	0.15932600000000	-71.68635100000000	667.77411900000004	-35.77848800000000	0.10922900000000	0.00000000000000	-0.04355100000000	0.00000000000000	-11.77096100000000	0.00000000000000	0.00000000000000	-13.82423400000000	0.00000000000000	
12.86328800000000	23.18211200000000	255.07984200000001	-4.26731100000000	0.38188700000000	0.00000000000000	0.15955000000000	-72.56124500000000	660.29124999999999	-34.94023300000000	0.10846400000000	0.00000000000000	-0.04338400000000	0.00000000000000	-11.45669200000000	0.00000000000000	0.00000000000000	-13.71485700000000	0.00000000000000	
12.86496000000000	24.92136300000000	263.97829500000000	-3.10425200000000	0.38242200000000	0.00000000000000	0.15976500000000	-73.39339400000000	652.62386000000004	-34.08504600000000	0.10770000000000	0.00000000000000	-0.04321400000000	0.00000000000000	-11.10886000000000	0.00000000000000	0.00000000000000	-13.60135900000000	0.00000000000000	
12.86662700000000	26.68588500000000	272.89864000000000	-1.88875700000000	0.38290400000000	0.00000000000000	0.15997200000000	-74.17948100000000	644.77357800000004	-33.21372900000000	0.10693800000000	0.00000000000000	-0.04304300000000	0.00000000000000	-10.72831900000000	0.00000000000000	0.00000000000000	-13.48352300000000	0.00000000000000	
12.86828700000000	28.47148400000000	281.83403600000003	-0.62399200000000	0.38333300000000	0.00000000000000	0.16017000000000	-74.91624800000000	636.74236699999994	-32.32714500000000	0.10617700000000	0.00000000000000	-0.04286900000000	0.00000000000000	-10.31647300000000	0.00000000000000	0.00000000000000	-13.36114300000000	0.00000000000000	
